<svg width="125" height="125" viewBox="0 0 125 125" fill="none" xmlns="http://www.w3.org/2000/svg">
<path d="M62.5 17.8571C50.66 17.8571 39.3049 22.5606 30.9327 30.9327C22.5606 39.3049 17.8571 50.66 17.8571 62.5C17.8571 74.34 22.5606 85.6951 30.9327 94.0673C39.3049 102.439 50.66 107.143 62.5 107.143C74.34 107.143 85.6951 102.439 94.0673 94.0673C102.439 85.6951 107.143 74.34 107.143 62.5C107.143 50.66 102.439 39.3049 94.0673 30.9327C85.6951 22.5606 74.34 17.8571 62.5 17.8571ZM125 62.5C125 79.076 118.415 94.9731 106.694 106.694C94.9731 118.415 79.076 125 62.5 125C45.924 125 30.0268 118.415 18.3058 106.694C6.5848 94.9731 0 79.076 0 62.5C0 45.924 6.5848 30.0268 18.3058 18.3058C30.0268 6.5848 45.924 0 62.5 0C79.076 0 94.9731 6.5848 106.694 18.3058C118.415 30.0268 125 45.924 125 62.5Z" fill="white"/>
</svg>
