<svg width="100" height="117" viewBox="0 0 100 117" fill="none" xmlns="http://www.w3.org/2000/svg">
<path d="M98.0683 13.6753C101.011 10.134 100.542 4.87409 97.0007 1.93166C93.4594 -1.01076 88.1995 -0.54206 85.2571 2.99927L50 45.3129L14.7429 2.99927C11.8005 -0.54206 6.5406 -1.01076 2.99927 1.93166C-0.54206 4.87409 -1.01076 10.134 1.93166 13.6753L39.1417 58.3325L1.93166 102.99C-1.01076 106.531 -0.54206 111.791 2.99927 114.733C6.5406 117.676 11.8005 117.207 14.7429 113.666L50 71.3521L85.2571 113.666C88.1995 117.207 93.4594 117.676 97.0007 114.733C100.542 111.791 101.011 106.531 98.0683 102.99L60.8583 58.3325L98.0683 13.6753Z" fill="white"/>
</svg>
